# xmcd
#
# Track frame offsets:
#	150
#	19520
#	42428
#	62365
#	81588
#	100379
#	115854
#	134916
#	153804
#	171165
#	193017
#	210080
#
# Disc length: 3084 seconds
#
# Revision: 0
# Processed by: cddbd v1.5.2PL0 Copyright (c) Steve Scherf et al.
# Submitted via: audiograbber 1.83.01
#
DISCID=9d0c0a0c
DTITLE=Heather Nova - Redbird [CD-R]
DYEAR=2005
DGENRE=Singer/Songwriter
TTITLE0=Welcome
TTITLE1=I Miss My Sky (Amelia Earhart's Last Days)
TTITLE2=Motherland
TTITLE3=Redbird
TTITLE4=Done Drifting
TTITLE5=Overturned
TTITLE6=Mesmerized
TTITLE7=Singing You Through
TTITLE8=A Way To Live
TTITLE9=Wicked Game
TTITLE10=This Body
TTITLE11=The Sun Will Always Rise
EXTD=
EXTT0=
EXTT1=
EXTT2=
EXTT3=
EXTT4=
EXTT5=
EXTT6=
EXTT7=
EXTT8=
EXTT9=
EXTT10=
EXTT11=
PLAYORDER=
